<svg width="222" height="29" viewBox="0 0 222 29" fill="none" xmlns="http://www.w3.org/2000/svg">
<mask id="path-1-outside-1_3_6" maskUnits="userSpaceOnUse" x="-1" y="-1" width="224" height="31" fill="black">
<rect fill="white" x="-1" y="-1" width="224" height="31"/>
<path d="M22.3994 28H16.833V16.4219H5.97852V28H0.412109V0.984375H5.97852V11.9316H16.833V0.984375H22.3994V28ZM43.5332 16.292H32.8457V23.5283H45.3887V28H27.2793V0.984375H45.3516V5.49316H32.8457V11.9316H43.5332V16.292ZM54.2207 23.5283H66.04V28H48.6543V0.984375H54.2207V23.5283ZM74.8164 23.5283H86.6357V28H69.25V0.984375H74.8164V23.5283ZM110.85 15.1045C110.85 17.764 110.38 20.0957 109.439 22.0996C108.499 24.1035 107.151 25.6497 105.395 26.7383C103.65 27.8268 101.646 28.3711 99.3828 28.3711C97.1439 28.3711 95.1462 27.833 93.3896 26.7568C91.6331 25.6807 90.2725 24.1468 89.3076 22.1553C88.3428 20.1514 87.8542 17.8506 87.8418 15.2529V13.917C87.8418 11.2575 88.318 8.9196 89.2705 6.90332C90.2354 4.87467 91.5898 3.32227 93.334 2.24609C95.0905 1.15755 97.0944 0.613281 99.3457 0.613281C101.597 0.613281 103.595 1.15755 105.339 2.24609C107.095 3.32227 108.45 4.87467 109.402 6.90332C110.367 8.9196 110.85 11.2513 110.85 13.8984V15.1045ZM105.209 13.8799C105.209 11.0472 104.702 8.89486 103.688 7.42285C102.673 5.95085 101.226 5.21484 99.3457 5.21484C97.4779 5.21484 96.0368 5.94466 95.0225 7.4043C94.0081 8.85156 93.4948 10.9792 93.4824 13.7871V15.1045C93.4824 17.863 93.9896 20.0029 95.0039 21.5244C96.0182 23.0459 97.4779 23.8066 99.3828 23.8066C101.251 23.8066 102.686 23.0768 103.688 21.6172C104.689 20.1452 105.197 18.0052 105.209 15.1973V13.8799Z"/>
<path d="M138.366 20.9121C138.366 19.8607 137.995 19.0566 137.253 18.5C136.511 17.931 135.175 17.3372 133.245 16.7188C131.315 16.0879 129.788 15.4694 128.662 14.8633C125.594 13.2057 124.061 10.973 124.061 8.16504C124.061 6.7054 124.469 5.40658 125.285 4.26855C126.114 3.11816 127.295 2.22135 128.829 1.57812C130.375 0.934896 132.107 0.613281 134.024 0.613281C135.954 0.613281 137.674 0.96582 139.183 1.6709C140.692 2.36361 141.861 3.34701 142.689 4.62109C143.531 5.89518 143.951 7.34245 143.951 8.96289H138.385C138.385 7.72591 137.995 6.76725 137.216 6.08691C136.437 5.39421 135.342 5.04785 133.932 5.04785C132.571 5.04785 131.513 5.33854 130.759 5.91992C130.004 6.48893 129.627 7.24349 129.627 8.18359C129.627 9.06185 130.066 9.79785 130.944 10.3916C131.835 10.9854 133.14 11.542 134.859 12.0615C138.026 13.014 140.333 14.1953 141.78 15.6055C143.228 17.0156 143.951 18.7721 143.951 20.875C143.951 23.2129 143.067 25.0498 141.298 26.3857C139.529 27.7093 137.148 28.3711 134.154 28.3711C132.076 28.3711 130.184 27.9938 128.477 27.2393C126.77 26.4723 125.465 25.4271 124.562 24.1035C123.671 22.7799 123.226 21.2461 123.226 19.502H128.811C128.811 22.4831 130.592 23.9736 134.154 23.9736C135.478 23.9736 136.511 23.7077 137.253 23.1758C137.995 22.6315 138.366 21.877 138.366 20.9121ZM169.724 28H164.157V16.4219H153.303V28H147.736V0.984375H153.303V11.9316H164.157V0.984375H169.724V28ZM196.795 15.1045C196.795 17.764 196.325 20.0957 195.385 22.0996C194.445 24.1035 193.096 25.6497 191.34 26.7383C189.596 27.8268 187.592 28.3711 185.328 28.3711C183.089 28.3711 181.091 27.833 179.335 26.7568C177.578 25.6807 176.218 24.1468 175.253 22.1553C174.288 20.1514 173.799 17.8506 173.787 15.2529V13.917C173.787 11.2575 174.263 8.9196 175.216 6.90332C176.181 4.87467 177.535 3.32227 179.279 2.24609C181.036 1.15755 183.04 0.613281 185.291 0.613281C187.542 0.613281 189.54 1.15755 191.284 2.24609C193.041 3.32227 194.395 4.87467 195.348 6.90332C196.312 8.9196 196.795 11.2513 196.795 13.8984V15.1045ZM191.154 13.8799C191.154 11.0472 190.647 8.89486 189.633 7.42285C188.618 5.95085 187.171 5.21484 185.291 5.21484C183.423 5.21484 181.982 5.94466 180.968 7.4043C179.953 8.85156 179.44 10.9792 179.428 13.7871V15.1045C179.428 17.863 179.935 20.0029 180.949 21.5244C181.964 23.0459 183.423 23.8066 185.328 23.8066C187.196 23.8066 188.631 23.0768 189.633 21.6172C190.635 20.1452 191.142 18.0052 191.154 15.1973V13.8799ZM206.406 18.4814V28H200.84V0.984375H211.379C213.408 0.984375 215.189 1.35547 216.723 2.09766C218.269 2.83984 219.456 3.89746 220.285 5.27051C221.114 6.63118 221.528 8.18359 221.528 9.92773C221.528 12.5749 220.619 14.6654 218.801 16.1992C216.995 17.7207 214.49 18.4814 211.286 18.4814H206.406ZM206.406 13.9727H211.379C212.851 13.9727 213.97 13.6263 214.737 12.9336C215.517 12.2409 215.906 11.2513 215.906 9.96484C215.906 8.64128 215.517 7.57129 214.737 6.75488C213.958 5.93848 212.882 5.5179 211.509 5.49316H206.406V13.9727Z"/>
</mask>
<path d="M22.3994 28H16.833V16.4219H5.97852V28H0.412109V0.984375H5.97852V11.9316H16.833V0.984375H22.3994V28ZM43.5332 16.292H32.8457V23.5283H45.3887V28H27.2793V0.984375H45.3516V5.49316H32.8457V11.9316H43.5332V16.292ZM54.2207 23.5283H66.04V28H48.6543V0.984375H54.2207V23.5283ZM74.8164 23.5283H86.6357V28H69.25V0.984375H74.8164V23.5283ZM110.85 15.1045C110.85 17.764 110.38 20.0957 109.439 22.0996C108.499 24.1035 107.151 25.6497 105.395 26.7383C103.65 27.8268 101.646 28.3711 99.3828 28.3711C97.1439 28.3711 95.1462 27.833 93.3896 26.7568C91.6331 25.6807 90.2725 24.1468 89.3076 22.1553C88.3428 20.1514 87.8542 17.8506 87.8418 15.2529V13.917C87.8418 11.2575 88.318 8.9196 89.2705 6.90332C90.2354 4.87467 91.5898 3.32227 93.334 2.24609C95.0905 1.15755 97.0944 0.613281 99.3457 0.613281C101.597 0.613281 103.595 1.15755 105.339 2.24609C107.095 3.32227 108.45 4.87467 109.402 6.90332C110.367 8.9196 110.85 11.2513 110.85 13.8984V15.1045ZM105.209 13.8799C105.209 11.0472 104.702 8.89486 103.688 7.42285C102.673 5.95085 101.226 5.21484 99.3457 5.21484C97.4779 5.21484 96.0368 5.94466 95.0225 7.4043C94.0081 8.85156 93.4948 10.9792 93.4824 13.7871V15.1045C93.4824 17.863 93.9896 20.0029 95.0039 21.5244C96.0182 23.0459 97.4779 23.8066 99.3828 23.8066C101.251 23.8066 102.686 23.0768 103.688 21.6172C104.689 20.1452 105.197 18.0052 105.209 15.1973V13.8799Z" fill="black"/>
<path d="M22.3994 28V29H23.3994V28H22.3994ZM16.833 28H15.833V29H16.833V28ZM16.833 16.4219H17.833V15.4219H16.833V16.4219ZM5.97852 16.4219V15.4219H4.97852V16.4219H5.97852ZM5.97852 28V29H6.97852V28H5.97852ZM0.412109 28H-0.587891V29H0.412109V28ZM0.412109 0.984375V-0.015625H-0.587891V0.984375H0.412109ZM5.97852 0.984375H6.97852V-0.015625H5.97852V0.984375ZM5.97852 11.9316H4.97852V12.9316H5.97852V11.9316ZM16.833 11.9316V12.9316H17.833V11.9316H16.833ZM16.833 0.984375V-0.015625H15.833V0.984375H16.833ZM22.3994 0.984375H23.3994V-0.015625H22.3994V0.984375ZM22.3994 27H16.833V29H22.3994V27ZM17.833 28V16.4219H15.833V28H17.833ZM16.833 15.4219H5.97852V17.4219H16.833V15.4219ZM4.97852 16.4219V28H6.97852V16.4219H4.97852ZM5.97852 27H0.412109V29H5.97852V27ZM1.41211 28V0.984375H-0.587891V28H1.41211ZM0.412109 1.98438H5.97852V-0.015625H0.412109V1.98438ZM4.97852 0.984375V11.9316H6.97852V0.984375H4.97852ZM5.97852 12.9316H16.833V10.9316H5.97852V12.9316ZM17.833 11.9316V0.984375H15.833V11.9316H17.833ZM16.833 1.98438H22.3994V-0.015625H16.833V1.98438ZM21.3994 0.984375V28H23.3994V0.984375H21.3994ZM43.5332 16.292V17.292H44.5332V16.292H43.5332ZM32.8457 16.292V15.292H31.8457V16.292H32.8457ZM32.8457 23.5283H31.8457V24.5283H32.8457V23.5283ZM45.3887 23.5283H46.3887V22.5283H45.3887V23.5283ZM45.3887 28V29H46.3887V28H45.3887ZM27.2793 28H26.2793V29H27.2793V28ZM27.2793 0.984375V-0.015625H26.2793V0.984375H27.2793ZM45.3516 0.984375H46.3516V-0.015625H45.3516V0.984375ZM45.3516 5.49316V6.49316H46.3516V5.49316H45.3516ZM32.8457 5.49316V4.49316H31.8457V5.49316H32.8457ZM32.8457 11.9316H31.8457V12.9316H32.8457V11.9316ZM43.5332 11.9316H44.5332V10.9316H43.5332V11.9316ZM43.5332 15.292H32.8457V17.292H43.5332V15.292ZM31.8457 16.292V23.5283H33.8457V16.292H31.8457ZM32.8457 24.5283H45.3887V22.5283H32.8457V24.5283ZM44.3887 23.5283V28H46.3887V23.5283H44.3887ZM45.3887 27H27.2793V29H45.3887V27ZM28.2793 28V0.984375H26.2793V28H28.2793ZM27.2793 1.98438H45.3516V-0.015625H27.2793V1.98438ZM44.3516 0.984375V5.49316H46.3516V0.984375H44.3516ZM45.3516 4.49316H32.8457V6.49316H45.3516V4.49316ZM31.8457 5.49316V11.9316H33.8457V5.49316H31.8457ZM32.8457 12.9316H43.5332V10.9316H32.8457V12.9316ZM42.5332 11.9316V16.292H44.5332V11.9316H42.5332ZM54.2207 23.5283H53.2207V24.5283H54.2207V23.5283ZM66.04 23.5283H67.04V22.5283H66.04V23.5283ZM66.04 28V29H67.04V28H66.04ZM48.6543 28H47.6543V29H48.6543V28ZM48.6543 0.984375V-0.015625H47.6543V0.984375H48.6543ZM54.2207 0.984375H55.2207V-0.015625H54.2207V0.984375ZM54.2207 24.5283H66.04V22.5283H54.2207V24.5283ZM65.04 23.5283V28H67.04V23.5283H65.04ZM66.04 27H48.6543V29H66.04V27ZM49.6543 28V0.984375H47.6543V28H49.6543ZM48.6543 1.98438H54.2207V-0.015625H48.6543V1.98438ZM53.2207 0.984375V23.5283H55.2207V0.984375H53.2207ZM74.8164 23.5283H73.8164V24.5283H74.8164V23.5283ZM86.6357 23.5283H87.6357V22.5283H86.6357V23.5283ZM86.6357 28V29H87.6357V28H86.6357ZM69.25 28H68.25V29H69.25V28ZM69.25 0.984375V-0.015625H68.25V0.984375H69.25ZM74.8164 0.984375H75.8164V-0.015625H74.8164V0.984375ZM74.8164 24.5283H86.6357V22.5283H74.8164V24.5283ZM85.6357 23.5283V28H87.6357V23.5283H85.6357ZM86.6357 27H69.25V29H86.6357V27ZM70.25 28V0.984375H68.25V28H70.25ZM69.25 1.98438H74.8164V-0.015625H69.25V1.98438ZM73.8164 0.984375V23.5283H75.8164V0.984375H73.8164ZM105.395 26.7383L104.868 25.8883L104.865 25.8899L105.395 26.7383ZM93.3896 26.7568L92.8672 27.6095L93.3896 26.7568ZM89.3076 22.1553L88.4066 22.5891L88.4077 22.5913L89.3076 22.1553ZM87.8418 15.2529H86.8418L86.8418 15.2577L87.8418 15.2529ZM89.2705 6.90332L88.3674 6.47381L88.3663 6.47619L89.2705 6.90332ZM93.334 2.24609L93.8591 3.09713L93.8607 3.0961L93.334 2.24609ZM105.339 2.24609L104.809 3.09446L104.816 3.09878L105.339 2.24609ZM109.402 6.90332L108.497 7.32833L108.5 7.33497L109.402 6.90332ZM95.0225 7.4043L95.8414 7.97823L95.8437 7.97495L95.0225 7.4043ZM93.4824 13.7871L92.4824 13.7827V13.7871H93.4824ZM103.688 21.6172L104.512 22.1831L104.514 22.1799L103.688 21.6172ZM105.209 15.1973L106.209 15.2017V15.1973H105.209ZM109.85 15.1045C109.85 17.6463 109.401 19.828 108.534 21.6749L110.345 22.5243C111.359 20.3634 111.85 17.8817 111.85 15.1045H109.85ZM108.534 21.6749C107.67 23.5164 106.448 24.9092 104.868 25.8883L105.921 27.5883C107.854 26.3903 109.328 24.6906 110.345 22.5243L108.534 21.6749ZM104.865 25.8899C103.296 26.8695 101.479 27.3711 99.3828 27.3711V29.3711C101.814 29.3711 104.005 28.7841 105.924 27.5866L104.865 25.8899ZM99.3828 27.3711C97.3117 27.3711 95.4978 26.8757 93.9121 25.9041L92.8672 27.6095C94.7945 28.7903 96.9761 29.3711 99.3828 29.3711V27.3711ZM93.9121 25.9041C92.3309 24.9354 91.0955 23.552 90.2076 21.7193L88.4077 22.5913C89.4494 24.7416 90.9354 26.4259 92.8672 27.6095L93.9121 25.9041ZM90.2086 21.7215C89.3182 19.8721 88.8536 17.7221 88.8418 15.2482L86.8418 15.2577C86.8548 17.9791 87.3673 20.4306 88.4066 22.5891L90.2086 21.7215ZM88.8418 15.2529V13.917H86.8418V15.2529H88.8418ZM88.8418 13.917C88.8418 11.3771 89.2963 9.1899 90.1747 7.33045L88.3663 6.47619C87.3398 8.64929 86.8418 11.1379 86.8418 13.917H88.8418ZM90.1736 7.33283C91.0639 5.46079 92.2946 4.06248 93.8591 3.09713L92.8089 1.39506C90.8851 2.58205 89.4068 4.28856 88.3674 6.47381L90.1736 7.33283ZM93.8607 3.0961C95.445 2.11432 97.2633 1.61328 99.3457 1.61328V-0.386719C96.9255 -0.386719 94.736 0.200787 92.8072 1.39608L93.8607 3.0961ZM99.3457 1.61328C101.428 1.61328 103.239 2.11433 104.809 3.09443L105.868 1.39776C103.95 0.200777 101.766 -0.386719 99.3457 -0.386719V1.61328ZM104.816 3.09878C106.392 4.06388 107.62 5.46035 108.497 7.32832L110.308 6.47832C109.28 4.289 107.799 2.58066 105.861 1.39341L104.816 3.09878ZM108.5 7.33497C109.39 9.19387 109.85 11.3734 109.85 13.8984H111.85C111.85 11.1292 111.345 8.64532 110.304 6.47167L108.5 7.33497ZM109.85 13.8984V15.1045H111.85V13.8984H109.85ZM106.209 13.8799C106.209 10.9537 105.69 8.56593 104.511 6.85544L102.864 7.99026C103.714 9.22378 104.209 11.1407 104.209 13.8799H106.209ZM104.511 6.85544C103.299 5.09636 101.535 4.21484 99.3457 4.21484V6.21484C100.917 6.21484 102.048 6.80533 102.864 7.99026L104.511 6.85544ZM99.3457 4.21484C97.1701 4.21484 95.4135 5.08923 94.2013 6.83364L95.8437 7.97495C96.6601 6.80009 97.7856 6.21484 99.3457 6.21484V4.21484ZM94.2036 6.83037C93.0217 8.51662 92.4952 10.8814 92.4824 13.7827L94.4824 13.7915C94.4944 11.0769 94.9945 9.1865 95.8414 7.97823L94.2036 6.83037ZM92.4824 13.7871V15.1045H94.4824V13.7871H92.4824ZM92.4824 15.1045C92.4824 17.9664 93.0055 20.3295 94.1719 22.0791L95.836 20.9697C94.9737 19.6763 94.4824 17.7595 94.4824 15.1045H92.4824ZM94.1719 22.0791C95.3807 23.8924 97.1602 24.8066 99.3828 24.8066V22.8066C97.7955 22.8066 96.6557 22.1994 95.836 20.9697L94.1719 22.0791ZM99.3828 24.8066C101.559 24.8066 103.312 23.9317 104.512 22.1831L102.863 21.0513C102.059 22.2219 100.943 22.8066 99.3828 22.8066V24.8066ZM104.514 22.1799C105.676 20.4733 106.196 18.103 106.209 15.2017L104.209 15.1929C104.197 17.9074 103.703 19.8171 102.861 21.0545L104.514 22.1799ZM106.209 15.1973V13.8799H104.209V15.1973H106.209ZM137.253 18.5L136.644 19.2937L136.653 19.3L137.253 18.5ZM133.245 16.7188L132.934 17.6693L132.94 17.671L133.245 16.7188ZM128.662 14.8633L128.187 15.7431L128.188 15.7438L128.662 14.8633ZM125.285 4.26855L124.474 3.68402L124.473 3.68565L125.285 4.26855ZM128.829 1.57812L128.445 0.654826L128.442 0.655931L128.829 1.57812ZM139.183 1.6709L138.759 2.57691L138.765 2.57973L139.183 1.6709ZM142.689 4.62109L141.851 5.16638L141.855 5.17205L142.689 4.62109ZM143.951 8.96289V9.96289H144.951V8.96289H143.951ZM138.385 8.96289H137.385V9.96289H138.385V8.96289ZM137.216 6.08691L136.551 6.83435L136.558 6.84023L137.216 6.08691ZM130.759 5.91992L131.361 6.71839L131.369 6.71206L130.759 5.91992ZM130.944 10.3916L130.384 11.2201L130.39 11.2237L130.944 10.3916ZM134.859 12.0615L134.57 13.0188L134.571 13.0191L134.859 12.0615ZM141.298 26.3857L141.897 27.1864L141.901 27.1837L141.298 26.3857ZM128.477 27.2393L128.067 28.1514L128.072 28.1539L128.477 27.2393ZM124.562 24.1035L123.732 24.6618L123.735 24.6671L124.562 24.1035ZM123.226 19.502V18.502H122.226V19.502H123.226ZM128.811 19.502H129.811V18.502H128.811V19.502ZM137.253 23.1758L137.835 23.9886L137.844 23.9822L137.253 23.1758ZM139.366 20.9121C139.366 19.5939 138.883 18.4726 137.853 17.7L136.653 19.3C137.107 19.6407 137.366 20.1274 137.366 20.9121H139.366ZM137.861 17.7064C136.972 17.0246 135.492 16.3888 133.55 15.7665L132.94 17.671C134.858 18.2857 136.049 18.8374 136.645 19.2936L137.861 17.7064ZM133.556 15.7683C131.654 15.1465 130.188 14.5494 129.136 13.9828L128.188 15.7438C129.387 16.3894 130.977 17.0293 132.934 17.6692L133.556 15.7683ZM129.137 13.9835C126.301 12.4507 125.061 10.5113 125.061 8.16504H123.061C123.061 11.4346 124.888 13.9608 128.187 15.7431L129.137 13.9835ZM125.061 8.16504C125.061 6.90513 125.409 5.81208 126.098 4.85146L124.473 3.68565C123.529 5.00107 123.061 6.50568 123.061 8.16504H125.061ZM126.097 4.85309C126.8 3.87645 127.822 3.08478 129.216 2.50032L128.442 0.655931C126.768 1.35793 125.428 2.35987 124.474 3.68402L126.097 4.85309ZM129.213 2.50142C130.621 1.91563 132.22 1.61328 134.024 1.61328V-0.386719C131.994 -0.386719 130.129 -0.0458422 128.445 0.65483L129.213 2.50142ZM134.024 1.61328C135.831 1.61328 137.402 1.94281 138.759 2.57689L139.606 0.764905C137.945 -0.0111699 136.077 -0.386719 134.024 -0.386719V1.61328ZM138.765 2.57973C140.119 3.2011 141.135 4.06542 141.851 5.16637L143.528 4.07582C142.586 2.62859 141.264 1.52612 139.6 0.762069L138.765 2.57973ZM141.855 5.17205C142.581 6.27242 142.951 7.5257 142.951 8.96289H144.951C144.951 7.15919 144.48 5.51795 143.524 4.07014L141.855 5.17205ZM143.951 7.96289H138.385V9.96289H143.951V7.96289ZM139.385 8.96289C139.385 7.49908 138.913 6.24109 137.873 5.3336L136.558 6.84023C137.077 7.29342 137.385 7.95274 137.385 8.96289H139.385ZM137.88 5.33951C136.862 4.43422 135.5 4.04785 133.932 4.04785V6.04785C135.184 6.04785 136.011 6.35419 136.551 6.83432L137.88 5.33951ZM133.932 4.04785C132.442 4.04785 131.139 4.36461 130.148 5.12778L131.369 6.71206C131.888 6.31247 132.7 6.04785 133.932 6.04785V4.04785ZM130.157 5.1215C129.153 5.87829 128.627 6.92771 128.627 8.18359H130.627C130.627 7.55927 130.855 7.09958 131.361 6.71835L130.157 5.1215ZM128.627 8.18359C128.627 9.46551 129.296 10.4844 130.384 11.22L131.504 9.56316C130.836 9.11134 130.627 8.65819 130.627 8.18359H128.627ZM130.39 11.2237C131.399 11.8965 132.811 12.4873 134.57 13.0188L135.149 11.1043C133.469 10.5967 132.271 10.0742 131.499 9.55955L130.39 11.2237ZM134.571 13.0191C137.671 13.9514 139.801 15.0735 141.082 16.3217L142.478 14.8892C140.865 13.3171 138.381 12.0766 135.147 11.1039L134.571 13.0191ZM141.082 16.3217C142.328 17.5352 142.951 19.0296 142.951 20.875H144.951C144.951 18.5147 144.127 16.496 142.478 14.8892L141.082 16.3217ZM142.951 20.875C142.951 22.9193 142.198 24.4525 140.695 25.5878L141.901 27.1837C143.935 25.6471 144.951 23.5065 144.951 20.875H142.951ZM140.699 25.5851C139.155 26.7402 137.007 27.3711 134.154 27.3711V29.3711C137.288 29.3711 139.903 28.6784 141.897 27.1864L140.699 25.5851ZM134.154 27.3711C132.2 27.3711 130.447 27.0168 128.881 26.3246L128.072 28.1539C129.92 28.9708 131.953 29.3711 134.154 29.3711V27.3711ZM128.886 26.3271C127.319 25.6229 126.17 24.6871 125.388 23.5399L123.735 24.6671C124.759 26.1671 126.22 27.3218 128.067 28.1514L128.886 26.3271ZM125.391 23.5452C124.622 22.4021 124.226 21.0666 124.226 19.502H122.226C122.226 21.4256 122.72 23.1578 123.732 24.6618L125.391 23.5452ZM123.226 20.502H128.811V18.502H123.226V20.502ZM127.811 19.502C127.811 21.1981 128.326 22.6361 129.505 23.6226C130.65 24.5806 132.258 24.9736 134.154 24.9736V22.9736C132.488 22.9736 131.425 22.6213 130.788 22.0888C130.186 21.5848 129.811 20.7869 129.811 19.502H127.811ZM134.154 24.9736C135.597 24.9736 136.863 24.6858 137.835 23.9886L136.67 22.363C136.159 22.7295 135.359 22.9736 134.154 22.9736V24.9736ZM137.844 23.9822C138.858 23.2391 139.366 22.1774 139.366 20.9121H137.366C137.366 21.5765 137.133 22.0239 136.662 22.3694L137.844 23.9822ZM169.724 28V29H170.724V28H169.724ZM164.157 28H163.157V29H164.157V28ZM164.157 16.4219H165.157V15.4219H164.157V16.4219ZM153.303 16.4219V15.4219H152.303V16.4219H153.303ZM153.303 28V29H154.303V28H153.303ZM147.736 28H146.736V29H147.736V28ZM147.736 0.984375V-0.015625H146.736V0.984375H147.736ZM153.303 0.984375H154.303V-0.015625H153.303V0.984375ZM153.303 11.9316H152.303V12.9316H153.303V11.9316ZM164.157 11.9316V12.9316H165.157V11.9316H164.157ZM164.157 0.984375V-0.015625H163.157V0.984375H164.157ZM169.724 0.984375H170.724V-0.015625H169.724V0.984375ZM169.724 27H164.157V29H169.724V27ZM165.157 28V16.4219H163.157V28H165.157ZM164.157 15.4219H153.303V17.4219H164.157V15.4219ZM152.303 16.4219V28H154.303V16.4219H152.303ZM153.303 27H147.736V29H153.303V27ZM148.736 28V0.984375H146.736V28H148.736ZM147.736 1.98438H153.303V-0.015625H147.736V1.98438ZM152.303 0.984375V11.9316H154.303V0.984375H152.303ZM153.303 12.9316H164.157V10.9316H153.303V12.9316ZM165.157 11.9316V0.984375H163.157V11.9316H165.157ZM164.157 1.98438H169.724V-0.015625H164.157V1.98438ZM168.724 0.984375V28H170.724V0.984375H168.724ZM191.34 26.7383L190.813 25.8883L190.81 25.8899L191.34 26.7383ZM179.335 26.7568L178.813 27.6095L179.335 26.7568ZM175.253 22.1553L174.352 22.5891L174.353 22.5913L175.253 22.1553ZM173.787 15.2529H172.787L172.787 15.2577L173.787 15.2529ZM175.216 6.90332L174.313 6.47381L174.312 6.47619L175.216 6.90332ZM179.279 2.24609L179.804 3.09713L179.806 3.0961L179.279 2.24609ZM191.284 2.24609L190.755 3.09446L190.762 3.09878L191.284 2.24609ZM195.348 6.90332L194.442 7.32833L194.446 7.33497L195.348 6.90332ZM180.968 7.4043L181.787 7.97823L181.789 7.97495L180.968 7.4043ZM179.428 13.7871L178.428 13.7827V13.7871H179.428ZM189.633 21.6172L190.457 22.1831L190.459 22.1799L189.633 21.6172ZM191.154 15.1973L192.154 15.2017V15.1973H191.154ZM195.795 15.1045C195.795 17.6463 195.346 19.828 194.479 21.6749L196.29 22.5243C197.304 20.3634 197.795 17.8817 197.795 15.1045H195.795ZM194.479 21.6749C193.616 23.5164 192.393 24.9092 190.813 25.8883L191.867 27.5883C193.8 26.3903 195.274 24.6906 196.29 22.5243L194.479 21.6749ZM190.81 25.8899C189.241 26.8695 187.424 27.3711 185.328 27.3711V29.3711C187.759 29.3711 189.951 28.7841 191.869 27.5866L190.81 25.8899ZM185.328 27.3711C183.257 27.3711 181.443 26.8757 179.857 25.9041L178.813 27.6095C180.74 28.7903 182.921 29.3711 185.328 29.3711V27.3711ZM179.857 25.9041C178.276 24.9354 177.041 23.552 176.153 21.7193L174.353 22.5913C175.395 24.7416 176.881 26.4259 178.813 27.6095L179.857 25.9041ZM176.154 21.7215C175.264 19.8721 174.799 17.7221 174.787 15.2482L172.787 15.2577C172.8 17.9791 173.313 20.4306 174.352 22.5891L176.154 21.7215ZM174.787 15.2529V13.917H172.787V15.2529H174.787ZM174.787 13.917C174.787 11.3771 175.242 9.1899 176.12 7.33045L174.312 6.47619C173.285 8.64929 172.787 11.1379 172.787 13.917H174.787ZM176.119 7.33283C177.009 5.46079 178.24 4.06248 179.804 3.09713L178.754 1.39506C176.83 2.58205 175.352 4.28856 174.313 6.47381L176.119 7.33283ZM179.806 3.0961C181.39 2.11432 183.209 1.61328 185.291 1.61328V-0.386719C182.871 -0.386719 180.681 0.200787 178.753 1.39608L179.806 3.0961ZM185.291 1.61328C187.374 1.61328 189.184 2.11433 190.755 3.09443L191.814 1.39776C189.896 0.200777 187.711 -0.386719 185.291 -0.386719V1.61328ZM190.762 3.09878C192.337 4.06388 193.565 5.46035 194.442 7.32832L196.253 6.47832C195.225 4.289 193.744 2.58066 191.807 1.39341L190.762 3.09878ZM194.446 7.33497C195.335 9.19387 195.795 11.3734 195.795 13.8984H197.795C197.795 11.1292 197.29 8.64532 196.25 6.47167L194.446 7.33497ZM195.795 13.8984V15.1045H197.795V13.8984H195.795ZM192.154 13.8799C192.154 10.9537 191.635 8.56593 190.456 6.85544L188.809 7.99026C189.659 9.22378 190.154 11.1407 190.154 13.8799H192.154ZM190.456 6.85544C189.244 5.09636 187.48 4.21484 185.291 4.21484V6.21484C186.863 6.21484 187.993 6.80533 188.809 7.99026L190.456 6.85544ZM185.291 4.21484C183.115 4.21484 181.359 5.08923 180.147 6.83364L181.789 7.97495C182.605 6.80009 183.731 6.21484 185.291 6.21484V4.21484ZM180.149 6.83037C178.967 8.51662 178.441 10.8814 178.428 13.7827L180.428 13.7915C180.44 11.0769 180.94 9.1865 181.787 7.97823L180.149 6.83037ZM178.428 13.7871V15.1045H180.428V13.7871H178.428ZM178.428 15.1045C178.428 17.9664 178.951 20.3295 180.117 22.0791L181.781 20.9697C180.919 19.6763 180.428 17.7595 180.428 15.1045H178.428ZM180.117 22.0791C181.326 23.8924 183.106 24.8066 185.328 24.8066V22.8066C183.741 22.8066 182.601 22.1994 181.781 20.9697L180.117 22.0791ZM185.328 24.8066C187.504 24.8066 189.257 23.9317 190.457 22.1831L188.808 21.0513C188.005 22.2219 186.888 22.8066 185.328 22.8066V24.8066ZM190.459 22.1799C191.621 20.4733 192.142 18.103 192.154 15.2017L190.154 15.1929C190.142 17.9074 189.648 19.8171 188.806 21.0545L190.459 22.1799ZM192.154 15.1973V13.8799H190.154V15.1973H192.154ZM206.406 18.4814V17.4814H205.406V18.4814H206.406ZM206.406 28V29H207.406V28H206.406ZM200.84 28H199.84V29H200.84V28ZM200.84 0.984375V-0.015625H199.84V0.984375H200.84ZM216.723 2.09766L216.287 2.99782L216.29 2.99918L216.723 2.09766ZM220.285 5.27051L219.429 5.78727L219.431 5.7907L220.285 5.27051ZM218.801 16.1992L219.445 16.964L219.446 16.9636L218.801 16.1992ZM206.406 13.9727H205.406V14.9727H206.406V13.9727ZM214.737 12.9336L214.073 12.1862L214.067 12.1915L214.737 12.9336ZM211.509 5.49316L211.527 4.49333L211.518 4.49316H211.509V5.49316ZM206.406 5.49316V4.49316H205.406V5.49316H206.406ZM205.406 18.4814V28H207.406V18.4814H205.406ZM206.406 27H200.84V29H206.406V27ZM201.84 28V0.984375H199.84V28H201.84ZM200.84 1.98438H211.379V-0.015625H200.84V1.98438ZM211.379 1.98438C213.285 1.98438 214.913 2.3327 216.287 2.99782L217.158 1.1975C215.465 0.378241 213.53 -0.015625 211.379 -0.015625V1.98438ZM216.29 2.99918C217.673 3.66321 218.708 4.5927 219.429 5.78727L221.141 4.75375C220.205 3.20222 218.864 2.01647 217.155 1.19613L216.29 2.99918ZM219.431 5.7907C220.155 6.97999 220.528 8.34913 220.528 9.92773H222.528C222.528 8.01806 222.072 6.28238 221.139 4.75031L219.431 5.7907ZM220.528 9.92773C220.528 12.3176 219.722 14.1139 218.156 15.4348L219.446 16.9636C221.516 15.2169 222.528 12.8321 222.528 9.92773H220.528ZM218.156 15.4344C216.586 16.7574 214.338 17.4814 211.286 17.4814V19.4814C214.641 19.4814 217.403 18.684 219.445 16.964L218.156 15.4344ZM211.286 17.4814H206.406V19.4814H211.286V17.4814ZM206.406 14.9727H211.379V12.9727H206.406V14.9727ZM211.379 14.9727C212.994 14.9727 214.392 14.5931 215.408 13.6757L214.067 12.1915C213.549 12.6595 212.708 12.9727 211.379 12.9727V14.9727ZM215.402 13.681C216.443 12.7553 216.906 11.4647 216.906 9.96484H214.906C214.906 11.0379 214.59 11.7265 214.073 12.1862L215.402 13.681ZM216.906 9.96484C216.906 8.43165 216.448 7.0986 215.461 6.06441L214.014 7.44536C214.585 8.04398 214.906 8.8509 214.906 9.96484H216.906ZM215.461 6.06441C214.458 5.01432 213.105 4.52176 211.527 4.49333L211.491 6.493C212.659 6.51404 213.458 6.86263 214.014 7.44536L215.461 6.06441ZM211.509 4.49316H206.406V6.49316H211.509V4.49316ZM205.406 5.49316V13.9727H207.406V5.49316H205.406Z" fill="black" mask="url(#path-1-outside-1_3_6)"/>
</svg>
